<svg xmlns="http://www.w3.org/2000/svg" width="346.509603248" height="288.592290264" viewBox="0 0 1000.0 832.8551"><defs><clipPath id="a" clipPathUnits="userSpaceOnUse"><path d="M15.75 694h81.833v90H15.75v-90z"/></clipPath><clipPath id="b" clipPathUnits="userSpaceOnUse"><path d="M15.75 694h81.833v90H15.75v-90z"/></clipPath></defs><g clip-path="url(#a)" transform="matrix(15.4346 0 0 -15.4346 -431.762 11822.593)"><path d="M0 0a10.065 10.065 0 0 0-1.171-1.904c-.429-.543-.873-.976-1.319-1.289-.388-.275-.712-.486-.978-.439-.172.043-.149.346-.128.541.06.558.239 1.122.531 1.678A7.767 7.767 0 0 0-1.977.162c.432.475.902.872 1.398 1.179.39.242.776.41 1.153.501A6.901 6.901 0 0 0 0 0m4.65 12.63c-1.114.176-1.919-.672-2.272-1.508-.125-.293-.161-.444-.281-.822-.12-.372-.167-.653-.259-1.037a57.325 57.325 0 0 1-.208-.895c-.076-.347-.085-.401-.183-.928a34.66 34.66 0 0 1-.23-1.332c-.054-.351-.107-.642-.161-.994a9.896 9.896 0 0 1-2.433-.95 10.163 10.163 0 0 1-2.435-1.859A11.078 11.078 0 0 1-5.711-.344a9.5 9.5 0 0 1-.992-3.369 6.263 6.263 0 0 1-.033-.478c-.103.09-.205.188-.286.31a2.457 2.457 0 0 0-.345.827c-.075.32-.12.722-.117 1.037.003.347.016.57.041.799a8.6 8.6 0 0 0 .109.733c.026.146.044.281.062.413.012.087.023.172.038.256.159.977.229 1.632.133 2.299-.064.442-.421 1.291-1.315 1.319-.07.002-.143 0-.22-.008-.602-.057-1.306-.387-1.737-.686A8.209 8.209 0 0 1-12.478.95c.086.263.199.526.31.781a11.25 11.25 0 0 1 .221.528c.146.371.298.753.332 1.061.029.277-.014.503-.129.67a.929.929 0 0 1-.358.311c-.139.062-.28.093-.418.093a1.943 1.943 0 0 1-1.159-.315 3.35 3.35 0 0 1-.605-.496 4.167 4.167 0 0 1-.456-.628c-.19-.306-.368-.724-.542-1.278a24.19 24.19 0 0 1-.462-1.703 38.847 38.847 0 0 1-.388-1.829 21.936 21.936 0 0 1-.246-1.592 28.554 28.554 0 0 1-.126-1.58 8.667 8.667 0 0 1 .028-1.408c.05-.439.156-.797.317-1.064.202-.332.532-.486.959-.443l.021.002c.08.011.358.051.617.141.24.083.604.343.912.827.178.276.359 1.006.577 1.931.051.212.097.407.136.562.853 3.33 2.092 4.029 2.704 4.157l-.127-1.127c-.03-.491-.065-.926-.076-1.442.014-.977.111-1.535.229-2.02.135-.553.386-1.221.69-1.571.358-.41.703-.679 1.326-.642a.03.03 0 0 1 .009.001h.006c.271.038.408.061.699.183.296.141.434.244.691.493.184.177.295.349.372.519.113-.206.256-.39.431-.548.274-.245.667-.36 1.168-.344l.035.002c.055.003.175.016.562.068.354.047.783.187 1.28.411.485.22 1.038.564 1.646 1.02.426.321.866.739 1.309 1.245-.043-.709-.078-1.385.232-2.313.127-.382.293-.695.551-1.048.288-.388.727-.586 1.309-.591h.004l.068.005c.277.046.506.118.699.22.198.104.385.256.555.451.205.235.327.537.367.902.011.11.006.235-.019.386-.024.146-.098.259-.175.377a2.379 2.379 0 0 0-.098.152c-.193.337-.315.616-.371.852-.146.617-.183 1.135-.155 2.132.013.476.05.998.088 1.495.038.487.093.985.15 1.513l.113 1.029c.012.123.024.229.037.322l.07-.001c.256-.003.524.085.791.268.314.219.505.617.567 1.183.052.483-.067.876-.355 1.168a2.917 2.917 0 0 1-.587.448c.031.183.062.355.085.513.031.203.064.38.098.526.022.102.042.204.063.307.017.088.032.175.051.259.005.019.355 1.652 1.055 4.085.113.395.166.698.193.953.04.373-.051 1-.753 1.111m10.041-8.572c.056-.227.067-.506.034-.851a8.467 8.467 0 0 0-.183-1.073c-.004-.015-.504-1.975-.702-2.914-.157-.747-.254-1.33-.367-2.006-.002-.014-.004-.029-.008-.044-.108-.66-.276-2.126-.375-3.161-.192-1.999-.237-2.475-.786-4.015-.561-1.575-1.844-2.619-2.443-2.954-1.085-.606-2.306-.921-3.633-.948h-.011a4.854 4.854 0 0 1-.22.019c-.143.01-.307.021-.464.049-1.394.25-2.199 1.135-2.049 2.281.079.599.547.964 1.149.874a9.002 9.002 0 0 1 1.558-.135c1.447.016 2.44.495 3.034 1.491.619 1.037.694 1.719.799 2.663l.042.38c.058.487.102.938.149 1.412a6.481 6.481 0 0 0-.683-.782c-.447-.425-.857-.75-1.222-.967-.437-.256-.864-.406-1.269-.446l-.013-.001-.014.001c-.666.014-1.179.271-1.528.763-.307.426-.543.964-.699 1.598a8.517 8.517 0 0 0-.237 1.97c-.007.671.017 1.3.072 1.87.17 1.769.535 3.18 1.084 4.186.608 1.121 1.382 1.688 2.298 1.667.049 0 .119-.008.249-.022a.999.999 0 0 0 .782-.571c.095-.191.127-.428.1-.721-.029-.298-.141-.625-.343-.999a9.678 9.678 0 0 1-.509-1.163A16.085 16.085 0 0 1 7.884.21a9.182 9.182 0 0 1-.279-1.553 13.095 13.095 0 0 1-.04-.583 5.327 5.327 0 0 1 .007-.786 1.96 1.96 0 0 1 .138-.618c.04-.098.168-.165.208-.173a.81.81 0 0 1 .186-.024c.128 0 .26.042.391.124.1.064.344.273.631.659.201.272.587.841.905 1.596.149.352.34.928.541 1.539.227.687.625 2.036.854 2.601.148.361.31.678.497.97.169.262.446.534.662.675.322.213.679.324 1.079.304.091-.005.188-.027.315-.059a.896.896 0 0 0 .442-.271c.119-.127.208-.308.27-.553m.7.29a1.15 1.15 0 0 0 .01.63c.035.12.147.399.213.662.078.347.109.693.025 1.016-.074.284-.092.696-.013.932.121.359.453.55.688.59.357.06.713.037 1.014-.111.329-.162.609-.554.68-.838.149-.599.082-1.078.012-1.46a3.66 3.66 0 0 0-.476-1.214c-.145-.243-.388-.453-.596-.603-.256-.183-.676-.252-1.117-.092-.202.074-.403.341-.44.488m7.345-8.465c-.106-.766-.418-1.403-.925-1.895a5.389 5.389 0 0 0-1.635-1.087 6.972 6.972 0 0 0-1.843-.502c-.561-.068-1.051-.083-1.454-.043-.038.003-.075.008-.109.012-.976.125-1.641.435-2.029.958-.386.522-.542 1.062-.466 1.608.09.648.429.963.698 1.111.326.183.609.261.864.239.009-.001.019-.002.03-.005.255-.029.55-.16.899-.398.235-.163.549-.271.934-.322.52-.067.913-.039 1.167.087.183.087.289.184.301.273.006.04.017.122-.123.255a2.932 2.932 0 0 1-.695.469c-.307.155-.644.316-1.032.492a6.347 6.347 0 0 0-1.099.623c-.358.252-.648.55-.863.883-.245.385-.332.84-.26 1.353.081.587.341 1.192.767 1.797a7.198 7.198 0 0 0 3.447 2.601c.728.256 1.451.337 2.147.233.67-.099 1.187-.404 1.534-.902.346-.504.46-1.198.341-2.061a2.535 2.535 0 0 0-.45-1.134c-.202-.281-.59-.602-1.3-.489-.483.072-.677.333-.754.541-.068.17-.123.356-.163.548-.028.127-.035.292-.118.378a.375.375 0 0 1-.268.068s-.11.006-.349-.063a3.031 3.031 0 0 1-.624-.274 2.44 2.44 0 0 1-.566-.45.87.87 0 0 1-.236-.439c-.012-.073-.019-.198.136-.347.192-.182.439-.365.738-.545.3-.183.645-.367 1.054-.562a6.41 6.41 0 0 0 1.154-.696c.357-.271.651-.587.874-.934.255-.399.349-.864.276-1.381M-19.322-.911c-.332-.514-.664-.915-1.017-1.223a5.423 5.423 0 0 0-1.064-.738 1.875 1.875 0 0 0-.413-.172c.056.308.16.721.304 1.064.212.509.485 1.011.81 1.492.384.567.695.939 1.012 1.205.22.186.413.297.558.321.323.056.339-.362.338-.445-.002-.503-.286-1.124-.528-1.504m2.139 4.224c-.26.178-.553.281-.869.306-.27.018-.601.004-.845-.036l-.018-.002c-.525-.089-1.075-.274-1.464-.49a5.95 5.95 0 0 1-1.157-.832 7.566 7.566 0 0 1-.975-1.037c-.2-.265-.579-.8-.888-1.396-.416-.802-.778-1.735-1.106-2.848-.205 0-.653.091-.858.131a2.233 2.233 0 0 1-.226.04l-.087.002c.949 3.948 1.611 6.184 2.095 7.733l.788 2.268c.206.428.331 1.014.311 1.285-.054.792-.6 1.592-1.572 1.377-1.031-.228-1.638-1.541-2.458-4.434a89.386 89.386 0 0 1-1.644-6.618c-.243-1.199-.486-2.398-.726-3.597l-.108-.54c-.082-.374-.125-.481-.257-.511-.066-.015-.149.031-.187.184-.086.335-.158 1.029-.209 1.919-.065 2.05-.236 4.174-.162 6.862.043 1.536.041 1.783-.06 2.176-.194.761-1.137 1.213-2.164.953-1.028-.261-1.33-1.415-1.923-2.989-.4-1.066-1.007-2.961-1.61-4.8-.565-1.904-1.23-4.236-1.23-4.236l-.124-.484-.123-.484c-.147-.394-.198-.472-.296-.5-.1-.027-.156.054-.186.174-.062.239-.052 1.767-.033 2.573.038 1.642.198 3.425.351 5.02.088 1.151.383 3.164.472 4.315.031.347.062.712.07.959.019.733-.031 1.087-.351 1.45-.501.441-1.112.407-1.817.247-1.135-.258-1.985-.961-1.884-1.347.016-.058.075-.114.133-.199.172-.249.262-.389.331-.641.082-.297.121-.708.119-1.371l-.075-1.783c-.143-1.794-.359-5.026-.417-7.237-.051-1.909.014-3.234.164-5.122.076-.949.277-1.724.385-2.141.192-.746.571-1.575 1.227-1.741.487-.123.863-.094 1.504.074.589.153 1.481.716 1.678 1.603l.753 2.964c.224 1.055.731 2.924 1.163 4.546.249.965.573 2.045.747 2.605.104.283.155.36.221.377.067.017.107-.005.122-.066a.767.767 0 0 0 .02-.18l.007-.2.014-.608c.049-1.984.429-5.398.786-6.795.233-.913.299-2.041 1.707-2.248.65-.098 1.191.086 1.191.086 1.038.316 1.307.914 1.54 1.935.152.646.621 2.426.878 3.572l.229 1.011c.19-.061 1.055-.196 1.416-.227.004-.109.009-.166.021-.236l.026-.183c.013-.088.023-.168.042-.256l.075-.345c.15-.6.384-1.111.693-1.52.299-.399.609-.67 1.038-.905.407-.222 1.104-.319 1.765-.251a1.715 1.715 0 0 1 .322.037l.135.026.001.006c.098.022.218.051.31.078 1.038.298 2.374 1.22 2.855 2.571.188.532.083.865-.038 1.051a.682.682 0 0 1-.571.321 1.563 1.563 0 0 1-.219-.021c-.452-.072-.794-.328-1.095-.554-.272-.204-.529-.397-.849-.459-.365-.07-.614-.061-.825.043-.235.116-.315.202-.41.442a2.112 2.112 0 0 0-.115.519 6.507 6.507 0 0 1 1.819.807 8.118 8.118 0 0 1 1.699 1.479 8.386 8.386 0 0 1 1.237 1.891 6.76 6.76 0 0 1 .587 2.257c.042.568-.019 1.038-.178 1.398-.164.354-.379.623-.638.797" style="fill:#dd1438;fill-opacity:1;fill-rule:nonzero;stroke:none" transform="translate(68.727 726.257)"/></g><g clip-path="url(#b)" transform="matrix(15.4346 0 0 -15.4346 -431.762 11822.593)"><path d="M0 0c.267-.139.568-.182.486-.234-.148-.092-.668.001-.914.155-.107.067-.147-.088-.05-.213l-.001.001a.973.973 0 0 1 .171-.192c.947-.828 2.168-1.076 3.27-.886a13.82 13.82 0 0 1 2.011-2.457 13.771 13.771 0 0 1 9.635-3.904c3.776 0 7.303 1.492 9.931 4.201.653.674 1.23 1.402 1.726 2.174 1.117-.209 2.365.033 3.329.876a.961.961 0 0 1 .17.192v-.001c.097.126.057.28-.051.213-.246-.154-.766-.247-.913-.155-.082.052.218.095.485.234 1.439.725 1.179 3.011.753 2.534-.308-.386-.711-.793-1.482-.768.699.813.768 1.957.526 1.754-.226-.234-.529-.723-1.141-1.135.35 1.262.522 2.582.501 3.928a13.743 13.743 0 0 1-4.201 9.722 13.95 13.95 0 0 1-2.951 2.189c-.581 1.058-1.312 1.825-2.624 2.123-.615.085-.925.076-1.429-.144a.998.998 0 0 1-.233.437c-.553.547-1.555.612-2.046.696-.578.056-1.588.072-2.55-.172-2.099-.532-3.531-1.551-4.568-2.982a13.934 13.934 0 0 1-3.166-2.444C1.144 12.103.02 7.006 1.27 2.436c-.563.4-.85.859-1.066 1.084-.242.203-.173-.94.526-1.754-.771-.025-1.175.381-1.483.768C-1.179 3.012-1.438.725 0 0" style="fill:#fff;fill-opacity:1;fill-rule:nonzero;stroke:none" transform="translate(45.205 744.573)"/></g><g style="fill:#000"><path d="M0 0h.078c.09 0 .163.03.163.103 0 .065-.047.108-.15.108A.344.344 0 0 1 0 .202V0zm-.004-.397h-.164V.31c.064.008.155.022.271.022C.237.332.296.31.344.275a.176.176 0 0 0 .073-.15c0-.086-.064-.142-.146-.168v-.009C.34-.073.374-.129.396-.224a.587.587 0 0 1 .052-.173H.275C.254-.37.241-.31.219-.224c-.013.073-.056.108-.146.108h-.077v-.281zm.107.931A.551.551 0 0 1-.44-.03a.55.55 0 0 1 .551-.564c.306-.005.539.25.539.56C.65.28.417.534.108.534H.103zm.008.142c.401 0 .72-.31.72-.706a.711.711 0 0 0-.723-.711.714.714 0 0 0-.728.711.71.71 0 0 0 .728.706h.003z" style="fill:#000;fill-opacity:1;fill-rule:nonzero;stroke:none" transform="matrix(15.4346 0 0 -15.4346 986.674 727.143)"/></g><path d="M0 0a12.642 12.642 0 0 1-9.147-3.871c-4.892-5.043-4.769-13.126.275-18.02a12.684 12.684 0 0 1 8.874-3.596c3.477 0 6.725 1.374 9.145 3.869a12.66 12.66 0 0 1 3.594 9.068 12.648 12.648 0 0 1-3.869 8.952A12.677 12.677 0 0 1 0 0m.002-26.581a13.773 13.773 0 0 0-9.636 3.905c-5.477 5.314-5.611 14.092-.298 19.567A13.727 13.727 0 0 0 0 1.094c3.616 0 7.037-1.387 9.634-3.906a13.743 13.743 0 0 0 4.201-9.721 13.743 13.743 0 0 0-3.903-9.847 13.722 13.722 0 0 0-9.93-4.201" style="fill:#2f1e18;fill-opacity:1;fill-rule:nonzero;stroke:none" transform="matrix(15.4346 0 0 -15.4346 491.4 39.455)"/><path d="M0 0c-.245-.154-.765-.247-.913-.155-.082.052.218.095.486.234C1.011.805.752 3.09.326 2.613c-.308-.386-.712-.793-1.483-.768.699.814.768 1.957.526 1.754-.502-.521-1.379-2.303-5.214-1.686.106.135.22.266.345.389-.196.117-.393.303-.594.6-.586.925-1.086 1.082-1.386 1.165.49.471.819.968 1.116 1.53.993 2.122.878 4.43.77 5.038-.115.94-.355 2.407-1.093 3.778-.836 1.559-1.653 4.406-4.465 5.362-.572.029-.873-.001-1.375-.221-.049.099-.524.49-.575.579-.298.27-1.174.509-1.566.639-.807.014-1.518.215-2.409-.026-3.771-1.019-5.453-2.903-6.568-6.367-.092-.287-.222-1.223-.237-1.508.034.097-1.226-3.726-.389-5.822.154-.176.168-.512.325-.686.396-.927 1.031-1.497 1.412-2.347-1.237-.051-1.671-1.94-1.707-2.099-3.881-.642-4.763 1.155-5.268 1.678-.241.203-.173-.94.526-1.754-.771-.025-1.175.382-1.482.768-.427.478-.686-1.809.752-2.534.268-.138.568-.182.486-.233-.148-.093-.668 0-.913.154-.115.072-.155-.11-.03-.239 3.703-2.459 5.408.246 5.972.324 2.042-.587 5.662.855 4.056 2.099-.437.683-1.096 1.855-1.121 3.206-.09.759-.002.994-.836.924.296.922.6 1.73.293 3.131a.489.489 0 0 1-.154-.11c1.645 1.606 4.89 1.797 6.665 3.552.23.4 1.139.533 1.357.949-.202-1.443-.845-2.713-2.182-3.988 0 0 .94-.003 1.687.53 1.274.909 1.871 2.014 2.75 2.968.005.047.247.263.237.322.145-.073.425-.305.518-.45 1.039-1.606.195-1.213 1.344-2.673.067-.077.191-.41.256-.491.25-.47.369-.761.688-1.195.413-.284.331-.765.573-1.584-.072-1.017-.28-1.81-.958-2.262-.037-.886-.785-2.942-.785-2.942.067-.203-.785-1.563 1.227-1.973.528-.107 1.326-.001 2.004.119.055.437.202.852.421 1.236a2.934 2.934 0 0 1-.028-.377c0-.35.065-.687.183-1.003l.061.016C-5.378.007-3.672-2.698.03-.239.155-.11.115.072 0 0" style="fill:#dd1438;fill-opacity:1;fill-rule:evenodd;stroke:none" transform="matrix(15.4346 0 0 -15.4346 724.554 331.57)"/><path d="M0 0c-.154.356-.257.596-.251.91-.02.051-.076.096-.149.131l.006-.366-.647.265c-.062-.087-.096-.213-.075-.391.211-1.245.795-1.887.945-2.044a.542.542 0 0 1 .414-.188.433.433 0 0 1 .389.152C.865-1.187.283-.651 0 0" style="fill:#24ace9;fill-opacity:1;fill-rule:nonzero;stroke:none" transform="matrix(15.4346 0 0 -15.4346 561.76 376.562)"/><path d="m0 0-.35.405c-.242-1.496-.795-1.892-.621-2.272.055-.119.182-.219.182-.219a.498.498 0 0 1 .245-.082c.122.001.249.029.345.141.411.504.697 1.346.787 1.89.019.116.02.233.007.346L0 0z" style="fill:#24ace9;fill-opacity:1;fill-rule:nonzero;stroke:none" transform="matrix(15.4346 0 0 -15.4346 458.578 382.909)"/><path d="m0 0-.573.136-.07.35A.797.797 0 0 1-.758.317c-.059-.228-.108-.438-.333-.935-.249-.553-.98-1.134-.235-1.354a.489.489 0 0 1 .481.123C-.397-1.445.012-.525.193.03c.032.102.054.206.069.314L0 0z" style="fill:#24ace9;fill-opacity:1;fill-rule:nonzero;stroke:none" transform="matrix(15.4346 0 0 -15.4346 440.016 371.891)"/><path d="m0 0-.678.359c.204-1.188.634-2.027.874-2.331a.618.618 0 0 1 .368-.205.445.445 0 0 1 .247.051s.181.083.225.206C1.174-1.535.531-.897.366.55L0 0z" style="fill:#24ace9;fill-opacity:1;fill-rule:nonzero;stroke:none" transform="matrix(15.4346 0 0 -15.4346 530.03 383.234)"/><path d="M0 0c.712-.179 1.347.369 1.36.556.009.147-.36.739-.497.869a.771.771 0 0 1-.773.152c-.217-.073-.64-.505-.632-.907C-.537.341 0 0 0 0" style="fill:#24ace9;fill-opacity:1;fill-rule:nonzero;stroke:none" transform="matrix(15.4346 0 0 -15.4346 488.262 419.009)"/><path d="M0 0c2.019.605 2.861 2.202 4.758 3.521-.315-.042-.703-.219-.968-.37-1.601-.918-2.106-1.316-2.852-1.83C.187.803-.781.186-1.482-.058c0 0 .501-.274 1.482.058m9.128 8.248c-.615.085-.926.076-1.429-.144a.998.998 0 0 1-.233.437c-.554.548-1.555.613-2.046.696-.579.056-1.588.072-2.551-.172-3.66-.928-5.293-3.332-6.336-6.832-.211-.708-.416-1.726-.539-2.686-.453-1.041-1.313-3.736.452-6.348.317-.47 1.364-1.775 1.636-2.49.378-1.725-1.795-.694-3.321-2.242 0 0-1.256-1.63-3.691-1.298-.415.07-.789.193-1.087.437a.973.973 0 0 1 .171-.192c1.545-1.351 3.819-1.158 5.113-.04.284.244.292.399 1.261.4 1.687.002 3.204.124 4.085 1.411-.685.894-.994 1.208-1.26 1.76 0 .279-.086.641-.305 1.108-.141 1.742-.323 1.97-.294 2.843-.069 1.116-.018 2.402 1.138 2.879 1.163.479 1.473.33 3.453 1.358C7.001 1.029 7.09 3.354 6.713 3.645c0 0-.851-1.491-1.934-2.431C3.16-.191 1.101-.716-1.075-1.538-3.261-2.364-3.524-3.2-3.524-3.2c-.551 3.135 1.311 4.951 1.311 4.951C-2.4 1.815-3.338.692-3.755.047c.466 2.041.981 3.28 1.499 4.299.136.25.445.722.722 1.075.582.655.835.927 1.707 1.51.547.366 1.151.709 1.897.906 1.628.431 4.067.396 5.036-.421.263-.224.383-.58.383-.58s.468.272.8.372c.472.142 1.027.002 1.377-.14 1.921-.852 2.369-3.016 3.821-4.833-1.433 2.931-1.728 5.416-4.359 6.013m2.681-6.793c.828-1.086 2.853-2.983 2.653-5.972 0 0 .258.757.226 1.745-.13 4.408-2.61 4.578-4.492 8.21 0 0-.283-1.492 1.613-3.983m8.417-13.845a1.007 1.007 0 0 0-.171-.192c-1.544-1.352-3.819-1.158-5.113-.039-.216.185-.273.319-.715.373a2.867 2.867 0 0 0-.239 1.142c0 .129.011.255.029.381a3.381 3.381 0 0 1-.378-.984c-.053-.003-.106-.085-.162-.101-1.846-.715-2.963-.235-3.693 1.214.065.094.452.596.502.691.148.324.6 1.297.722 2.616.209 1.756.201 2.16.265 2.59.097.838.094 1.053-.085 1.651-.157.493-.287.663-.581 1.222C9.876-.767 9.598-.315 9.252.359c-.248.483-.323.717-.399.993 0 0-.669-1.629-2.048-2.652-1.179-.875-2.085-1.157-2.751-1.034 1.019.576 2.07 1.207 2.844 2.474 1.085 1.774 1.289 3.562 1.289 3.562s.071.005.291-.117c.165-.093.469-.405.621-.961.057-.211.288-.978.568-1.612.506-1.142.986-1.688 2.011-2.634.998-.922 1.971-2.228 1.604-4.149-.213-1.118-.714-1.813-1.267-2.755-.181-.361-.241-.631-.195-1.022.153-1.028 1.172-.47 2.454-.785a3.619 3.619 0 0 1-.244-.369c.475-.145.973-.377 1.417-.827 0 0 1.257-1.63 3.692-1.299.415.071.789.195 1.087.438" style="fill:#9c0b2b;fill-opacity:1;fill-rule:evenodd;stroke:none" transform="matrix(15.4346 0 0 -15.4346 413.172 143.61)"/><path d="M0 0c-.226.052-.319-.064-.424-.282a3.453 3.453 0 0 1-.129.551c-.156.493-.287.663-.58 1.222-.732 1.059-1.009 1.511-1.356 2.185-.248.483-.323.717-.399.993 0 0-.668-1.629-2.048-2.652C-6.115 1.142-7.02.86-7.687.983c1.268 1.21 1.911 2.415 2.147 3.767-.522-.732-1.409-1.55-2.856-2.3-1.98-1.028-2.29-.879-3.452-1.358-.824-.339-1.086-1.09-1.144-1.896a7.012 7.012 0 0 1-.037.338c-.022.46-.148.452-.148.452s-.732-.01-.78-1.093c-.014-.668.104-.857.202-1.085.11-.256.236-.579.399-.659.279-.133.402-.042.447.014l.016-.093c.005-.031.011-.063.015-.098l.023-.147c.229-1.463.445-2.344.819-2.902.029-.072.061-.147.095-.223.081-.139.16-.267.232-.381.244-.189.367-.383.393-.573l.046-.059.143-.184-.013-.018c.037-.034.074-.069.113-.1.149-.166.304-.304.446-.42l-.087-2.837.094-.465.572-.136.275.36.928-1.074.805.282s.195-.079.359-.224c.164-.144 1.178-.594 1.178-.594l.469.183.595.446.241.407.982-.521.934 1.406.728-.299-.05 3.212c.092.098.18.196.263.292.279.322.604.663.849 1.027l.029.066a.13.13 0 0 1 .008.017l.029.064.016.038.025.057.024.057.023.054.028.07.022.054.031.083.021.054.034.095.02.054a6.494 6.494 0 0 1 .09.275l.019.06.035.123.018.062.034.128.017.068.031.132.017.073.028.138.016.077.025.146.014.079.023.164.01.069.026.241c.055.465.095.835.126 1.136.078-.052.261-.12.502.131.299.245.554.967.543 1.554C.427-.636.302-.07 0 0" style="fill:#fcd3d7;fill-opacity:1;fill-rule:evenodd;stroke:none" transform="matrix(15.4346 0 0 -15.4346 594.387 194.807)"/><path d="M0 0a2.348 2.348 0 0 1-.088.617c-.075.376-.151.63-.304 1.289-.182.784-.685.811-.871.798-.145-.011-.893-.207-1.395-.625-.524-.399-.532-.69-.466-.897.052-.164.305-.623.5-.871.557-.683 1.391-.855 1.044-1.098-.101-.11-.074-.298.045-.723.096-.263.189-.495.283-.644.091-.125.173-.373.529-.406.089-.009.197-.002.173-.059a.84.84 0 0 1-.068-.352c.006-.146.206-.601.295-.826.102-.261.346-1.423.889-1.413.247.003.492.065.704.134.504.149 1.135.567 1.213.898.113.471-.189.666-.344.886-.297.31-.956.953-1.145 1.154-.044.047-.099.093-.165.158-.184.183-.091.235-.008.355.1.206-.193.787-.267.902-.122.186-.325.402-.507.405C-.334-.256-.002-.226 0 0" style="fill:#24ace9;fill-opacity:1;fill-rule:nonzero;stroke:none" transform="matrix(15.4346 0 0 -15.4346 358.886 293.703)"/><path d="M0 0c.505.207.491.214.677.363.058.047.206-.031.07-.26C.689.01.599.054.618-.153c.025-.266.589-.67.209-.747-.345-.069-.543.57-.57.662C.228-.148.076-.246 0-.239-.163-.223-.296-.122 0 0" style="fill:#2f1e18;fill-opacity:1;fill-rule:nonzero;stroke:none" transform="matrix(15.4346 0 0 -15.4346 354.877 328.455)"/><path d="M0 0c.048-.361.332-.771.567-.544C.716-.4.431-.361.231.475.102 1.018-.037.279 0 0" style="fill:#2f1e18;fill-opacity:1;fill-rule:nonzero;stroke:none" transform="matrix(15.4346 0 0 -15.4346 338.058 287.997)"/><path d="M0 0c-.231-.024-.508-.043-.629-.197-.119-.154-.137-.194-.053-.343.084-.15.125-.026.259.095a.84.84 0 0 0 .407.205c.122.018.271.082.314.215C.33.078.217.022 0 0" style="fill:#fff;fill-opacity:1;fill-rule:evenodd;stroke:none" transform="matrix(15.4346 0 0 -15.4346 350.688 300.705)"/><path d="M0 0c.194.001.464.284.586.467.076.115.413.698.217.885-.106.106-.133.138.029.293.068.064.124.11.17.157.196.199 1.038 1.114 1.237 1.33.107.145.453.417.303.804-.115.263-.94.701-1.376.867-.244.102-.517.19-.707.204-.429.051-.774-1.204-.872-1.461-.085-.221-.203-.734-.201-.879 0-.108.036-.241.089-.342.032-.056-.086-.051-.183-.06-.386-.036-.577-.291-.65-.382-.093-.086-.217-.33-.306-.589C-1.77.877-1.737.706-1.623.6-1.23.365-2.066.264-2.659-.523c-.214-.242-.511-.68-.56-.843-.063-.202-.114-.433.523-.865.478-.376 1.392-.588 1.552-.598.202-.012.628-.123.786.647.131.646.178.84.237 1.129.06.348.095.623.064.726C-.074-.14-.393-.021 0 0" style="fill:#24ace9;fill-opacity:1;fill-rule:nonzero;stroke:none" transform="matrix(15.4346 0 0 -15.4346 635.82 328.545)"/><path d="M0 0c-.573.037-.555.091-.746.219-.062.04-.311-.084-.133-.243.061-.053.195-.211.144-.403-.068-.249-.433-.723-.076-.676.406.051.5.625.545.71.046.086.115.12.204.132C.109-.24.291-.018 0 0" style="fill:#2f1e18;fill-opacity:1;fill-rule:nonzero;stroke:none" transform="matrix(15.4346 0 0 -15.4346 627.602 327.159)"/><path d="M0 0c-.114-.248-.199-.583-.53-.407-.416.221.104.554.422.891C.191.798.089.195 0 0" style="fill:#2f1e18;fill-opacity:1;fill-rule:nonzero;stroke:none" transform="matrix(15.4346 0 0 -15.4346 645.6 290.17)"/><path d="M0 0c-.196.167-.394.346-.595.34C-.797.333-.874.302-.915.136c-.041-.165.079-.117.267-.143.188-.026.392-.16.489-.236.106-.086.309-.149.363-.058C.257-.211.184-.158 0 0" style="fill:#fff;fill-opacity:1;fill-rule:evenodd;stroke:none" transform="matrix(15.4346 0 0 -15.4346 638.568 301.797)"/><path d="M0 0s-.282.695-.572.676C-.062.68.607.574 1.112.612c.08.004.241.069.32.076.787.081 1.715-.144 2.439.072-.248-.235-.399-.801-.756-.979-.383-.192-1.269-.247-1.822-.215C.735-.402.391-.206 0 0" style="fill:#fff;fill-opacity:1;fill-rule:evenodd;stroke:none" transform="matrix(15.4346 0 0 -15.4346 464.846 298.792)"/><path d="M0 0c0 .085.056.148.158.148.083-.002.195-.064.193-.15C.355-.112.239-.183.153-.18.052-.18-.002-.109 0 0" style="fill:#dd1438;fill-opacity:1;fill-rule:nonzero;stroke:none" transform="matrix(15.4346 0 0 -15.4346 414.463 241.28)"/><path d="M0 0c0 .089.086.183.179.18.095.006.195-.089.195-.181C.373-.079.271-.148.175-.148.087-.155-.001-.077 0 0" style="fill:#dd1438;fill-opacity:1;fill-rule:nonzero;stroke:none" transform="matrix(15.4346 0 0 -15.4346 426.52 249.38)"/><path d="M0 0c0 .071.108.159.21.158C.276.156.381.072.379-.005c-.036-.127-.1-.18-.169-.18C.076-.183-.002-.13 0 0" style="fill:#dd1438;fill-opacity:1;fill-rule:nonzero;stroke:none" transform="matrix(15.4346 0 0 -15.4346 436.713 234.368)"/><path d="M0 0c.002.092.046.173.157.172a.165.165 0 0 0 .16-.168c0-.096-.072-.188-.164-.177C.043-.173 0-.087 0 0" style="fill:#dd1438;fill-opacity:1;fill-rule:nonzero;stroke:none" transform="matrix(15.4346 0 0 -15.4346 449.056 244.863)"/><path d="M0 0c.001.091.06.163.165.163C.271.16.334.091.332.003c0-.09-.063-.165-.172-.164C.056-.162-.001-.084 0 0" style="fill:#dd1438;fill-opacity:1;fill-rule:nonzero;stroke:none" transform="matrix(15.4346 0 0 -15.4346 461.081 232.008)"/><path d="M0 0c.016.097.066.151.171.132.09-.02.146-.094.141-.195C.294-.15.21-.183.111-.163.016-.146-.013-.066 0 0" style="fill:#dd1438;fill-opacity:1;fill-rule:nonzero;stroke:none" transform="matrix(15.4346 0 0 -15.4346 517.986 232.704)"/><path d="M0 0c.015.077.08.144.154.13a.156.156 0 0 0 .128-.185C.266-.145.189-.207.098-.189.02-.174-.017-.091 0 0" style="fill:#dd1438;fill-opacity:1;fill-rule:nonzero;stroke:none" transform="matrix(15.4346 0 0 -15.4346 534.237 235.695)"/><path d="M0 0c.02.094.093.141.221.117C.32.099.36.03.342-.065.322-.167.26-.247.158-.228.029-.205-.019-.101 0 0" style="fill:#dd1438;fill-opacity:1;fill-rule:nonzero;stroke:none" transform="matrix(15.4346 0 0 -15.4346 555.836 233.698)"/><path d="M0 0c.02.108.11.156.229.138A.173.173 0 0 0 .36-.067C.342-.155.255-.224.169-.206.044-.184-.017-.088 0 0" style="fill:#dd1438;fill-opacity:1;fill-rule:nonzero;stroke:none" transform="matrix(15.4346 0 0 -15.4346 543.294 245.454)"/><path d="M0 0c.021.105.108.15.213.128C.311.115.382.035.36-.064a.183.183 0 0 0-.206-.141C.047-.186-.02-.096 0 0" style="fill:#dd1438;fill-opacity:1;fill-rule:nonzero;stroke:none" transform="matrix(15.4346 0 0 -15.4346 560.227 246.647)"/><path d="M0 0a1.637 1.637 0 0 1-1.061-.943c-.001-.115.287-.236.296-.28.139-.04.615.043.782.041.565-.006 1.208.255 1.046.578 0 0-.544.749-1.063.604" style="fill:#fff;fill-opacity:1;fill-rule:nonzero;stroke:none" transform="matrix(15.4346 0 0 -15.4346 441.57 199.603)"/><path d="M0 0c.143.229-.492 1.082-.897 1.042-.406-.041-.709-.194-1.029-.689-.018-.029.008-.159-.011-.192.152-.254.584-.438 1.094-.436.163 0 .321.02.462.056C-.373-.06-.141-.23 0 0" style="fill:#fff;fill-opacity:1;fill-rule:nonzero;stroke:none" transform="matrix(15.4346 0 0 -15.4346 554.72 214.611)"/><path d="M0 0c.432-.11.836.127.903.434a.82.82 0 0 1-.096.562.762.762 0 0 1-.305.311c-.157.111-.399.089-.476.064l-.068-.031C-.47 1.173-.724.185 0 0m-3.769 5.897c-.013-.62-.018-1.236-.03-2.076.067-.111.154-.241.274-.406.205-.286.5.678.857.476.382-.216.363-.891.771-1.211.243-.19.694.89.932.299.257-.639.718-.786 1.216-1.04.223.196.549.223.822.545.256.302.409.61.598.669.292.091.464-.63.78-.515.514.189.424 1.137.901 1.265.242.065.281-.351.567-.394.285-.044.557.955.704 1.37.074.205.179.264.338.204.225-.085.239-.388.26-.91.032-.733.369-1.436.778-1.926.408-.489-.631-.218-1.038.843-.254.66-.183.665-.372.325 0 0-.35-.606-.576-.666-.289-.078-.564.346-.564.346S3.11 1.917 2.53 1.914c-.545-.002-.728.579-.856.354-.097-.167-.217-.416-.706-.595.262-.2.488-.407.587-.769V.903C1.742.042 1.103-.502.35-.558c-.543-.037-1.201.192-1.375.702-.191.649.211 1.242.601 1.521-.361.095-.648.341-.859.649 0 0-.306-.422-.758-.342-.288.051-.674.618-.812 1.102-.007.022-.319-.425-.686-.365-.491.08-.485.441-.723.794-.053.078-.228.333-.264.114a2.37 2.37 0 0 0-.224-.695c-.25-.502-.973-1.059-1.29-.848.283.114.755.675.901 1.176.162.559.202 1.085.142 1.632-.047.436.384.195.67-.104l.014.282c.017.313.02.664.023.999.001.148-.067.425-.24.624-.178.213-.452.657-.608.883 0 0-.183.291-.3.507a5.935 5.935 0 0 0-.349.833 6.74 6.74 0 0 0-.313 1.461c-.074.642-.062.791-.081 1.202.085-.389.21-1.033.256-1.237.212-.93.387-1.36.714-1.923.326-.586.741-1.053 1.135-1.466.231-.242.707-.636 1.01-.88.406-.325.587-.472 1.044-.76.405-.255 1.15-.773 2.172-.761.961.011 1.483.388 1.796.568.672.389 1.021.695 1.488 1.132.537.502.811.753 1.137 1.134.423.494.812 1.022 1.164 2.266.192.68.316 1.475.395 1.919.011-.158.035-.337-.014-.95a9.642 9.642 0 0 0-.189-1.259c-.141-.593-.27-.991-.505-1.423-.243-.445-.308-.484-.716-1.096-.285-.404-.296-.42-.308-.726-.009-1.285-.295-3.049-.517-.262-1.413-1.2-2.628-1.956-3.779-1.969-1.131-.013-2.312.735-3.871 2.021m6.847 8.589c-.237-.077-.607-.413-.736-.608-.161-.242-.262-.677-.469-.684-.08.028-.003.208-.124.195-.156-.035-.25-.171-.209-.332.03-.081.1-.142.211-.155.37-.048.426.293.567.489.119.163.364.414.495.488.121.07.298.123.45.004.089-.076.001-.242-.065-.276-.169-.014-.329.048-.409.031-.081-.017-.201-.235-.219-.505.178-.072.221.063.396.066.282.004.559-.181.703-.039.145.144.141.405.14.518.24-.01.349-.349.248-.524-.08-.092-.274-.074-.273-.245.819-.165.896.176.959.361.045.149.028.271-.041.475-.24.608-.969.955-1.624.741M-4.5 12.933c.145-.076.453-.225.697-.154.029.094-.051.139-.103.14-.154.006-.263.143-.259.207.018.209.234.547.488.681.232.165.411.076.479-.052-.005-.1-.041-.176-.127-.195-.133-.03-.229.085-.328.042a.399.399 0 0 1-.047-.513c.067-.081.146-.112.174-.086.125.159.426.156.729.131.129.091.136.311.172.499.216.245.324-.248.467-.444.094-.128.196-.281.324-.294.219-.022.504.154.395.476-.063.083-.236-.084-.305-.029-.262.249-.026.757-.57 1.029-.582.292-1.485.191-1.846-.263a2.386 2.386 0 0 1-.407-.669c-.055-.198-.107-.403.067-.506m5.557-2.207c-.357.107-.44-.275-.803-.274-.509 0-.615.326-.885.298-.222-.025-.337-.362-.488-.385-.121.024-.096-.18.057-.219.306-.077.239.179.441.108.119-.046.144-.25.487-.407.341-.155.681.03.987.307.194.188.561.175.467.291-.082.039-.141.245-.263.281m.742 4.652c.024-.099.374-.001.538.062.126.049.232.104.392.137.11.023.269.039.377.04.248.001.408-.002.622-.037.338-.056.975-.389 1.027-.243.058.274-.182.494-.364.593-.451.243-1.139.369-1.754.12-.206-.098-.276-.181-.47-.313-.135-.091-.383-.238-.368-.359m-2.433-7.17c.079.003.388.033.468.04.786.073 1.506-.13 2.232.078-.25-.232-.454-.595-.813-.77-.384-.188-1.086-.189-1.638-.15-.558.038-1.014.342-1.404.552-.105-.315.064-.436.306-.651.274-.245.701-.579 1.345-.596.933-.024 1.668.066 2.136.837.143.253.529.772.931.964.225.107.74.348.655.481-.153.196-.457.161-.675.112-.166-.034-.216-.338-.493-.36-.656-.085-1.293.145-2.102.119-.582-.017-1.041-.152-1.663-.201-.6-.048-.808.269-1.371.338-.256.033-.303-.115-.109-.359.182-.187.498-.365.749-.361.51-.001.94-.107 1.446-.073m-1.622 7.289c-.14.036-.222.091-.4.112a2.549 2.549 0 0 1-.379.017c-.246-.014-.37-.012-.619-.076-.332-.085-.948-.449-1.011-.306-.053.192.047.365.172.49.441.142.805.226 1.368.448.18-.005.36-.034.531-.095.183-.075.321-.178.49-.283.137-.085.405-.218.388-.336-.035-.1-.371-.016-.54.029" style="fill:#2f1e18;fill-opacity:1;fill-rule:evenodd;stroke:none" transform="matrix(15.4346 0 0 -15.4346 490.552 417.235)"/></svg>